<svg xmlns="http://www.w3.org/2000/svg" viewBox="0 0 24.64 15.84"><defs><style>.cls-1{fill:#fff;}</style></defs><g id="Layer_2" data-name="Layer 2"><g id="Layer_1-2" data-name="Layer 1"><path id="Rectangle-2" class="cls-1" d="M19,0H1.3A1.3,1.3,0,0,0,0,1.3v12a2.59,2.59,0,0,0,2.59,2.59H14.83a2.59,2.59,0,0,0,2.59-2.59V11.56H19a5.61,5.61,0,0,0,5.61-5.62V5.61A5.61,5.61,0,0,0,19,0ZM13.11,8.14a21.93,21.93,0,0,1-4.75,4.62A21.93,21.93,0,0,1,3.61,8.14c-1.17-1.83-.34-4.62,1.9-4.62A2.66,2.66,0,0,1,8.36,5.28a2.66,2.66,0,0,1,2.85-1.76C13.45,3.52,14.28,6.31,13.11,8.14Zm5.77.42H17.42V3h1.46a2.78,2.78,0,1,1,0,5.56Z"/></g></g></svg>